<svg width="40" height="40" viewBox="0 0 40 40" fill="none" xmlns="http://www.w3.org/2000/svg">
<rect width="40" height="40" rx="12" fill="white" fill-opacity="0.1"/>
<path fill-rule="evenodd" clip-rule="evenodd" d="M19.0056 14.9583C19.397 14.5686 19.3983 13.9354 19.0086 13.5441C18.6189 13.1528 17.9857 13.1515 17.5944 13.5412L11.5569 19.5537C11.4019 19.7028 11.295 19.9014 11.2614 20.124C11.2539 20.1736 11.25 20.224 11.25 20.2748C11.25 20.5407 11.356 20.7957 11.5444 20.9834L17.5944 27.0074C17.9858 27.3971 18.6189 27.3957 19.0086 27.0043C19.3983 26.613 19.3969 25.9798 19.0056 25.5901L14.6712 21.2744H27.2502C27.8025 21.2744 28.2502 20.8266 28.2502 20.2744C28.2502 19.7221 27.8025 19.2744 27.2502 19.2744H14.6717L19.0056 14.9583Z" fill="black"/>
</svg>
