<svg width="375" height="226" viewBox="0 0 375 226" fill="none" xmlns="http://www.w3.org/2000/svg">
<g clip-path="url(#clip0_7756_16105)">
<rect width="375" height="226" fill="#3FB4FA"/>
<path d="M-78.9202 394.129C-92.0313 395.453 -104.206 387.188 -107.813 374.513L-148.298 232.267C-150.501 224.525 -149.162 216.204 -144.641 209.544L11.5315 -20.4868C16.053 -27.1467 23.2924 -31.4617 31.3014 -32.2705L178.448 -47.1301C191.559 -48.4541 203.734 -40.1887 207.341 -27.5143L247.826 114.732C250.029 122.474 248.69 130.795 244.169 137.455L87.9966 367.486C83.475 374.145 76.2357 378.46 68.2266 379.269L-78.9202 394.129Z" fill="url(#paint0_linear_7756_16105)" fill-opacity="0.1"/>
<path d="M-101.959 326.543C-112.527 327.611 -122.339 320.949 -125.247 310.733L-157.878 196.082C-159.654 189.842 -158.574 183.136 -154.93 177.768L-29.0549 -7.63765C-25.4106 -13.0056 -19.5756 -16.4834 -13.1203 -17.1353L105.48 -29.1122C116.048 -30.1794 125.86 -23.5174 128.768 -13.3018L161.399 101.349C163.175 107.589 162.095 114.296 158.451 119.664L32.5761 305.069C28.9317 310.437 23.0968 313.915 16.6415 314.567L-101.959 326.543Z" fill="url(#paint1_linear_7756_16105)" fill-opacity="0.1"/>
<path d="M29.4091 287.283C22.0214 288.029 15.1615 283.372 13.1289 276.23L-9.68313 196.079C-10.9248 191.716 -10.1702 187.028 -7.62242 183.275L80.3759 53.6594C82.9236 49.9067 87.0028 47.4754 91.5157 47.0197L174.429 38.6467C181.816 37.9007 188.676 42.5579 190.709 49.6996L213.521 129.851C214.762 134.214 214.008 138.902 211.46 142.655L123.462 272.27C120.914 276.023 116.835 278.454 112.322 278.91L29.4091 287.283Z" fill="url(#paint2_linear_7756_16105)" fill-opacity="0.1"/>
</g>
<defs>
<linearGradient id="paint0_linear_7756_16105" x1="-17.0568" y1="-5.32652" x2="60.1588" y2="409.705" gradientUnits="userSpaceOnUse">
<stop stop-color="white"/>
<stop offset="1" stop-color="white" stop-opacity="0"/>
</linearGradient>
<linearGradient id="paint1_linear_7756_16105" x1="-52.0971" y1="4.58159" x2="10.1388" y2="339.098" gradientUnits="userSpaceOnUse">
<stop stop-color="white"/>
<stop offset="1" stop-color="white" stop-opacity="0"/>
</linearGradient>
<linearGradient id="paint2_linear_7756_16105" x1="64.2673" y1="62.2018" x2="107.776" y2="296.06" gradientUnits="userSpaceOnUse">
<stop stop-color="white"/>
<stop offset="1" stop-color="white" stop-opacity="0"/>
</linearGradient>
<clipPath id="clip0_7756_16105">
<rect width="375" height="226" fill="white"/>
</clipPath>
</defs>
</svg>
